<?xml version="1.0" encoding="utf-8"?>
<!-- Generator: Adobe Illustrator 22.0.0, SVG Export Plug-In . SVG Version: 6.00 Build 0)  -->
<svg version="1.1" id="Слой_1" xmlns="http://www.w3.org/2000/svg" xmlns:xlink="http://www.w3.org/1999/xlink" x="0px" y="0px"
	 viewBox="0 0 358.5 26.3" style="enable-background:new 0 0 358.5 26.3;" xml:space="preserve">
<title>tel</title>
<path d="M8.5,25.9V3.2H0v-3h20.4v3h-8.5v22.7H8.5z"/>
<path d="M34.3,19.9l3.3,0.4c-0.4,1.8-1.4,3.3-2.9,4.4c-1.6,1.1-3.4,1.7-5.3,1.6c-2.4,0.1-4.8-0.8-6.5-2.5c-1.7-2-2.6-4.5-2.4-7.1
	c0-3.1,0.8-5.6,2.4-7.3c1.6-1.7,3.9-2.7,6.3-2.6c2.3-0.1,4.5,0.9,6.1,2.5c1.6,1.7,2.4,4.1,2.4,7.2c0,0.2,0,0.5,0,0.8H23.7
	c0,1.7,0.6,3.4,1.7,4.7c1,1.1,2.4,1.7,3.9,1.6c1.1,0,2.1-0.3,3-0.9C33.3,22,33.9,21,34.3,19.9z M23.9,14.8h10.4
	c0-1.3-0.4-2.5-1.2-3.5c-1-1.2-2.5-1.9-4-1.8c-1.4,0-2.7,0.5-3.7,1.5C24.5,11.9,23.9,13.3,23.9,14.8z"/>
<path d="M41.9,7.2h14.7v18.7h-3.1v-16H45v9.3c0,1.4,0,2.9-0.2,4.3c-0.2,0.7-0.6,1.4-1.2,1.8c-0.8,0.6-1.8,0.8-2.7,0.8
	c-0.7,0-1.6,0-2.5-0.1v-2.7h1.4c0.5,0,1,0,1.4-0.2c0.3-0.1,0.5-0.4,0.6-0.6c0.1-0.9,0.2-1.9,0.1-2.9L41.9,7.2z"/>
<path d="M62.2,10.8V7.2h3.6v3.6H62.2z M62.2,25.9v-3.6h3.6v3.6H62.2z"/>
<g>
	<path d="M117.7,19.7V15H113v-3.2h4.7V7.2h3.1v4.7h4.7V15h-4.7v4.7H117.7z"/>
	<path d="M127.7,7.8V4.6h11.7v2.5c-1,1-2,2.3-3,4.1s-1.8,3.7-2.3,5.7c-0.5,2-0.8,3.8-0.8,5.4h-3.3c0.1-2.5,0.6-5,1.5-7.6
		c1-2.6,2.3-4.9,3.9-6.9H127.7z"/>
	<path d="M154.9,27.5h-2.4c-1.2-1.9-2.2-3.8-2.8-5.9c-0.7-2-1-4-1-5.9c0-2.4,0.4-4.6,1.2-6.7c0.7-1.8,1.6-3.5,2.7-5h2.3
		c-1.1,2.5-1.9,4.6-2.3,6.3c-0.4,1.7-0.6,3.6-0.6,5.5c0,1.3,0.1,2.7,0.4,4.1c0.2,1.4,0.6,2.7,1,4C153.7,24.8,154.2,26,154.9,27.5z"
		/>
	<path d="M159.8,12.6c-0.9-0.4-1.5-0.9-1.9-1.5c-0.4-0.7-0.6-1.4-0.6-2.2c0-1.3,0.5-2.4,1.4-3.3c0.9-0.9,2.3-1.3,4-1.3
		c1.7,0,3,0.4,4,1.3c0.9,0.9,1.4,2,1.4,3.3c0,0.8-0.2,1.6-0.6,2.2c-0.4,0.6-1,1.1-1.8,1.5c1,0.4,1.7,1,2.3,1.7
		c0.5,0.8,0.8,1.6,0.8,2.6c0,1.7-0.5,3-1.6,4c-1.1,1-2.5,1.5-4.2,1.5c-1.6,0-3-0.4-4.1-1.3c-1.3-1-1.9-2.4-1.9-4.2
		c0-1,0.2-1.9,0.7-2.7C158,13.7,158.7,13.1,159.8,12.6z M160.2,16.8c0,0.9,0.2,1.7,0.7,2.2c0.5,0.5,1.1,0.8,1.8,0.8
		c0.7,0,1.3-0.3,1.8-0.8s0.7-1.2,0.7-2.2c0-0.8-0.2-1.5-0.7-2c-0.5-0.5-1.1-0.8-1.8-0.8c-0.8,0-1.5,0.3-1.9,0.9
		C160.4,15.5,160.2,16.2,160.2,16.8z M160.5,9.2c0,0.7,0.2,1.2,0.6,1.6c0.4,0.4,0.9,0.6,1.5,0.6c0.7,0,1.2-0.2,1.6-0.6
		c0.4-0.4,0.6-0.9,0.6-1.6c0-0.6-0.2-1.2-0.6-1.5c-0.4-0.4-0.9-0.6-1.5-0.6c-0.7,0-1.2,0.2-1.6,0.6S160.5,8.5,160.5,9.2z"/>
	<path d="M179.5,22.3h-3.4V9.3c-1.3,1.2-2.7,2-4.4,2.6V8.8c0.9-0.3,1.9-0.8,2.9-1.7c1-0.8,1.8-1.8,2.2-2.9h2.8V22.3z"/>
	<path d="M196.2,19.1v3.2h-12c0.1-1.2,0.5-2.3,1.2-3.4c0.7-1.1,1.9-2.5,3.9-4.3c1.5-1.4,2.5-2.4,2.8-2.9c0.5-0.7,0.7-1.4,0.7-2.1
		c0-0.8-0.2-1.4-0.6-1.8c-0.4-0.4-1-0.6-1.7-0.6c-0.7,0-1.3,0.2-1.7,0.6c-0.4,0.4-0.7,1.1-0.7,2.1l-3.4-0.3c0.2-1.9,0.8-3.2,1.9-4.1
		c1.1-0.8,2.4-1.2,4-1.2c1.8,0,3.2,0.5,4.2,1.4c1,1,1.5,2.1,1.5,3.6c0,0.8-0.1,1.6-0.4,2.3c-0.3,0.7-0.7,1.5-1.4,2.3
		c-0.4,0.5-1.2,1.3-2.2,2.3s-1.8,1.7-2.1,2s-0.5,0.6-0.7,1H196.2z"/>
	<path d="M198.3,27.5c0.7-1.4,1.2-2.6,1.4-3.3c0.3-0.8,0.5-1.7,0.8-2.7s0.4-2,0.5-2.9c0.1-0.9,0.2-1.8,0.2-2.8
		c0-1.9-0.2-3.8-0.6-5.5c-0.4-1.7-1.2-3.8-2.3-6.3h2.3c1.2,1.8,2.2,3.6,2.9,5.6c0.7,2,1,4,1,6c0,1.7-0.3,3.5-0.8,5.5
		c-0.6,2.2-1.6,4.3-3,6.5H198.3z"/>
	<path d="M225.4,19.1v3.2h-12c0.1-1.2,0.5-2.3,1.2-3.4c0.7-1.1,1.9-2.5,3.9-4.3c1.5-1.4,2.5-2.4,2.8-2.9c0.5-0.7,0.7-1.4,0.7-2.1
		c0-0.8-0.2-1.4-0.6-1.8c-0.4-0.4-1-0.6-1.7-0.6c-0.7,0-1.3,0.2-1.7,0.6c-0.4,0.4-0.7,1.1-0.7,2.1l-3.4-0.3c0.2-1.9,0.8-3.2,1.9-4.1
		c1.1-0.8,2.4-1.2,4-1.2c1.8,0,3.2,0.5,4.2,1.4s1.5,2.1,1.5,3.6c0,0.8-0.1,1.6-0.4,2.3c-0.3,0.7-0.7,1.5-1.4,2.3
		c-0.4,0.5-1.2,1.3-2.2,2.3s-1.8,1.7-2.1,2c-0.3,0.3-0.5,0.6-0.7,1H225.4z"/>
	<path d="M239.3,19.1v3.2h-12c0.1-1.2,0.5-2.3,1.2-3.4c0.7-1.1,1.9-2.5,3.9-4.3c1.5-1.4,2.5-2.4,2.8-2.9c0.5-0.7,0.7-1.4,0.7-2.1
		c0-0.8-0.2-1.4-0.6-1.8c-0.4-0.4-1-0.6-1.7-0.6c-0.7,0-1.3,0.2-1.7,0.6c-0.4,0.4-0.7,1.1-0.7,2.1l-3.4-0.3c0.2-1.9,0.8-3.2,1.9-4.1
		c1.1-0.8,2.4-1.2,4-1.2c1.8,0,3.2,0.5,4.2,1.4s1.5,2.1,1.5,3.6c0,0.8-0.1,1.6-0.4,2.3c-0.3,0.7-0.7,1.5-1.4,2.3
		c-0.4,0.5-1.2,1.3-2.2,2.3s-1.8,1.7-2.1,2c-0.3,0.3-0.5,0.6-0.7,1H239.3z"/>
	<path d="M248.4,22.3v-3.6H241v-3l7.8-11.4h2.9v11.4h2.2v3h-2.2v3.6H248.4z M248.4,15.7V9.5l-4.1,6.1H248.4z"/>
	<path d="M271.3,22.3h-3.4V9.3c-1.3,1.2-2.7,2-4.4,2.6V8.8c0.9-0.3,1.9-0.8,2.9-1.7c1.1-0.8,1.8-1.8,2.2-2.9h2.8V22.3z"/>
	<path d="M288,8.8l-3.3,0.4c-0.1-0.7-0.3-1.2-0.6-1.5c-0.3-0.3-0.8-0.5-1.3-0.5c-0.7,0-1.3,0.3-1.8,1c-0.5,0.7-0.8,2-0.9,4.1
		c0.9-1,1.9-1.5,3.2-1.5c1.4,0,2.7,0.5,3.7,1.6c1,1.1,1.5,2.5,1.5,4.2c0,1.8-0.5,3.3-1.6,4.4s-2.5,1.7-4.1,1.7
		c-1.8,0-3.3-0.7-4.5-2.1c-1.2-1.4-1.7-3.7-1.7-6.9c0-3.3,0.6-5.6,1.8-7.1c1.2-1.4,2.8-2.2,4.7-2.2c1.4,0,2.5,0.4,3.4,1.1
		C287.2,6.2,287.8,7.3,288,8.8z M280.2,16.2c0,1.1,0.3,2,0.8,2.6c0.5,0.6,1.1,0.9,1.8,0.9c0.6,0,1.2-0.2,1.6-0.7
		c0.4-0.5,0.6-1.3,0.6-2.4c0-1.2-0.2-2-0.7-2.6c-0.5-0.5-1-0.8-1.7-0.8c-0.7,0-1.2,0.3-1.7,0.8C280.5,14.5,280.2,15.2,280.2,16.2z"
		/>
	<path d="M303,4.3c1.7,0,3.1,0.6,4.1,1.9c1.2,1.5,1.7,3.9,1.7,7.3c0,3.4-0.6,5.8-1.8,7.3c-1,1.2-2.3,1.8-4.1,1.8
		c-1.7,0-3.1-0.7-4.2-2c-1.1-1.3-1.6-3.7-1.6-7.2c0-3.4,0.6-5.8,1.8-7.3C299.9,4.9,301.3,4.3,303,4.3z M303,7.1
		c-0.4,0-0.8,0.1-1.1,0.4c-0.3,0.3-0.6,0.7-0.8,1.4c-0.2,0.9-0.4,2.4-0.4,4.5s0.1,3.5,0.3,4.3s0.5,1.3,0.8,1.6
		c0.3,0.3,0.7,0.4,1.1,0.4s0.8-0.1,1.1-0.4c0.3-0.3,0.6-0.7,0.8-1.4c0.2-0.9,0.4-2.4,0.4-4.5s-0.1-3.5-0.3-4.3
		c-0.2-0.8-0.5-1.3-0.8-1.6C303.8,7.3,303.4,7.1,303,7.1z"/>
	<path d="M314.1,12.6c-0.9-0.4-1.5-0.9-1.9-1.5c-0.4-0.7-0.6-1.4-0.6-2.2c0-1.3,0.5-2.4,1.4-3.3c0.9-0.9,2.3-1.3,4-1.3
		c1.7,0,3,0.4,4,1.3c0.9,0.9,1.4,2,1.4,3.3c0,0.8-0.2,1.6-0.6,2.2c-0.4,0.6-1,1.1-1.8,1.5c1,0.4,1.7,1,2.3,1.7
		c0.5,0.8,0.8,1.6,0.8,2.6c0,1.7-0.5,3-1.6,4c-1.1,1-2.5,1.5-4.2,1.5c-1.6,0-3-0.4-4.1-1.3c-1.3-1-1.9-2.4-1.9-4.2
		c0-1,0.2-1.9,0.7-2.7C312.3,13.7,313,13.1,314.1,12.6z M314.5,16.8c0,0.9,0.2,1.7,0.7,2.2c0.5,0.5,1.1,0.8,1.8,0.8
		c0.7,0,1.3-0.3,1.8-0.8s0.7-1.2,0.7-2.2c0-0.8-0.2-1.5-0.7-2c-0.5-0.5-1.1-0.8-1.8-0.8c-0.8,0-1.5,0.3-1.9,0.9
		C314.7,15.5,314.5,16.2,314.5,16.8z M314.8,9.2c0,0.7,0.2,1.2,0.6,1.6c0.4,0.4,0.9,0.6,1.5,0.6c0.7,0,1.2-0.2,1.6-0.6
		c0.4-0.4,0.6-0.9,0.6-1.6c0-0.6-0.2-1.2-0.6-1.5c-0.4-0.4-0.9-0.6-1.5-0.6c-0.7,0-1.2,0.2-1.6,0.6S314.8,8.5,314.8,9.2z"/>
</g>
</svg>
