<svg id="Слой_1" data-name="Слой 1" xmlns="http://www.w3.org/2000/svg" viewBox="0 0 358.49 26.31"><title>tel</title><path d="M17.33,34.28V11.55H8.84v-3H29.27v3H20.74V34.28Z" transform="translate(-8.84 -8.4)"/><path d="M43.12,28.26l3.27.41a8,8,0,0,1-2.86,4.45,8.67,8.67,0,0,1-5.35,1.58,8.5,8.5,0,0,1-6.49-2.53,9.85,9.85,0,0,1-2.4-7.07q0-4.71,2.42-7.31a8.21,8.21,0,0,1,6.3-2.6,8,8,0,0,1,6.11,2.54q2.39,2.55,2.38,7.18c0,.18,0,.47,0,.84H32.56a7.1,7.1,0,0,0,1.74,4.71,5.17,5.17,0,0,0,3.9,1.64,4.84,4.84,0,0,0,3-.92A6.06,6.06,0,0,0,43.12,28.26ZM32.73,23.15H43.16A6.27,6.27,0,0,0,42,19.62,4.84,4.84,0,0,0,38,17.79a5,5,0,0,0-3.66,1.46A5.79,5.79,0,0,0,32.73,23.15Z" transform="translate(-8.84 -8.4)"/><path d="M50.71,15.61h14.7V34.28H62.26v-16H53.88v9.3a27,27,0,0,1-.21,4.28,3.14,3.14,0,0,1-1.16,1.82,4.28,4.28,0,0,1-2.74.77c-.74,0-1.59,0-2.55-.14V31.62h1.39a3.59,3.59,0,0,0,1.4-.2,1,1,0,0,0,.56-.64,14.83,14.83,0,0,0,.14-2.87Z" transform="translate(-8.84 -8.4)"/><path d="M71.05,19.21v-3.6h3.61v3.6Zm0,15.07V30.67h3.61v3.61Z" transform="translate(-8.84 -8.4)"/><path d="M96.82,30.11V23h-7V20.09h7v-7h3v7h7V23h-7v7.07Z" transform="translate(-8.84 -8.4)"/><path d="M110.53,11.88v-3h16.68V11.3a35.36,35.36,0,0,0-4.87,7,42.63,42.63,0,0,0-3.74,8.93,33.07,33.07,0,0,0-1.21,7.09h-3.25a31.34,31.34,0,0,1,1.19-7.35,38.84,38.84,0,0,1,3.28-8.31,35.92,35.92,0,0,1,4.54-6.74Z" transform="translate(-8.84 -8.4)"/><path d="M140.82,28.32l3-.28a5.32,5.32,0,0,0,1.48,3.11,4.06,4.06,0,0,0,2.79,1,4.85,4.85,0,0,0,2.56-.66,5.5,5.5,0,0,0,1.8-1.79,10.53,10.53,0,0,0,1.18-3,15.77,15.77,0,0,0,.47-3.87c0-.14,0-.35,0-.63a7.38,7.38,0,0,1-2.6,2.45,7,7,0,0,1-3.56.94,7.19,7.19,0,0,1-5.41-2.32,8.49,8.49,0,0,1-2.21-6.12,8.7,8.7,0,0,1,2.31-6.31,7.73,7.73,0,0,1,5.79-2.39,8.28,8.28,0,0,1,4.6,1.35,8.54,8.54,0,0,1,3.16,3.86,19,19,0,0,1,1.08,7.25,23.59,23.59,0,0,1-1.07,7.87A9.28,9.28,0,0,1,153,33.19a8.25,8.25,0,0,1-5,1.52,6.79,6.79,0,0,1-7.24-6.39Zm13-11.38a6.23,6.23,0,0,0-1.45-4.32,4.54,4.54,0,0,0-3.49-1.6,4.83,4.83,0,0,0-3.68,1.72,6.41,6.41,0,0,0-1.56,4.47,5.52,5.52,0,0,0,1.48,4,4.91,4.91,0,0,0,3.67,1.53,4.7,4.7,0,0,0,3.61-1.53A6.1,6.1,0,0,0,153.78,16.94Z" transform="translate(-8.84 -8.4)"/><path d="M177,31.23v3.05H160a5.63,5.63,0,0,1,.37-2.2,11.76,11.76,0,0,1,2.09-3.43,32.32,32.32,0,0,1,4.13-3.9,34.75,34.75,0,0,0,5.68-5.46,6.5,6.5,0,0,0,1.48-3.81,4.22,4.22,0,0,0-1.35-3.17,4.83,4.83,0,0,0-3.5-1.29,5,5,0,0,0-3.66,1.37,5.19,5.19,0,0,0-1.39,3.8l-3.25-.34a8,8,0,0,1,2.51-5.54,8.61,8.61,0,0,1,5.86-1.91,8.17,8.17,0,0,1,5.87,2.06A6.75,6.75,0,0,1,177,15.55a7.79,7.79,0,0,1-.63,3.05,11.77,11.77,0,0,1-2.1,3.14,51.74,51.74,0,0,1-4.88,4.54q-2.85,2.38-3.66,3.24a10.44,10.44,0,0,0-1.33,1.71Z" transform="translate(-8.84 -8.4)"/><path d="M192.31,34.28h-3.17V14.11a16,16,0,0,1-3,2.18,21.58,21.58,0,0,1-3.34,1.64V14.87a19.31,19.31,0,0,0,4.65-3,12.08,12.08,0,0,0,2.81-3.45h2Z" transform="translate(-8.84 -8.4)"/><path d="M210.89,28.32l3-.28a5.38,5.38,0,0,0,1.47,3.11,4.09,4.09,0,0,0,2.8,1,4.9,4.9,0,0,0,2.56-.66,5.5,5.5,0,0,0,1.8-1.79,10.53,10.53,0,0,0,1.18-3,16.27,16.27,0,0,0,.47-3.87c0-.14,0-.35,0-.63a7.27,7.27,0,0,1-2.59,2.45,7,7,0,0,1-3.56.94,7.17,7.17,0,0,1-5.41-2.32,8.49,8.49,0,0,1-2.22-6.12,8.7,8.7,0,0,1,2.31-6.31,7.75,7.75,0,0,1,5.8-2.39,8.27,8.27,0,0,1,4.59,1.35,8.5,8.5,0,0,1,3.17,3.86,19,19,0,0,1,1.08,7.25,23.59,23.59,0,0,1-1.07,7.87,9.23,9.23,0,0,1-3.2,4.46,8.22,8.22,0,0,1-5,1.52,6.79,6.79,0,0,1-7.24-6.39Zm13-11.38a6.19,6.19,0,0,0-1.45-4.32A4.54,4.54,0,0,0,218.9,11a4.81,4.81,0,0,0-3.67,1.72,6.41,6.41,0,0,0-1.57,4.47,5.53,5.53,0,0,0,1.49,4,4.9,4.9,0,0,0,3.66,1.53,4.72,4.72,0,0,0,3.62-1.53A6.09,6.09,0,0,0,223.84,16.94Z" transform="translate(-8.84 -8.4)"/><path d="M246.85,14.82l-3.14.24a6,6,0,0,0-1.2-2.7A4.17,4.17,0,0,0,239.35,11a4.31,4.31,0,0,0-2.66.85A7.14,7.14,0,0,0,234.34,15a16.39,16.39,0,0,0-.9,6,7.32,7.32,0,0,1,2.79-2.59,7.59,7.59,0,0,1,3.47-.84,7.13,7.13,0,0,1,5.38,2.33,8.33,8.33,0,0,1,2.23,6,9.88,9.88,0,0,1-1.05,4.51,7.56,7.56,0,0,1-2.87,3.19,7.83,7.83,0,0,1-4.15,1.1,8.08,8.08,0,0,1-6.45-2.9q-2.49-2.91-2.5-9.59,0-7.47,2.76-10.87a7.94,7.94,0,0,1,6.49-2.95,7.24,7.24,0,0,1,5,1.71A7.19,7.19,0,0,1,246.85,14.82ZM233.93,25.93a7.18,7.18,0,0,0,.7,3.12,5.15,5.15,0,0,0,1.94,2.28,4.85,4.85,0,0,0,2.62.78,4.48,4.48,0,0,0,3.44-1.61,6.39,6.39,0,0,0,1.44-4.4,6,6,0,0,0-1.42-4.21,4.7,4.7,0,0,0-3.59-1.54,4.87,4.87,0,0,0-3.63,1.54A5.54,5.54,0,0,0,233.93,25.93Z" transform="translate(-8.84 -8.4)"/><path d="M262.37,34.28h-3.16V14.11a15.75,15.75,0,0,1-3,2.18,21.09,21.09,0,0,1-3.33,1.64V14.87a19.05,19.05,0,0,0,4.64-3,11.91,11.91,0,0,0,2.81-3.45h2Z" transform="translate(-8.84 -8.4)"/><path d="M285.35,20.3a6,6,0,0,1-2.92-2.06,5.38,5.38,0,0,1-.95-3.2,6.22,6.22,0,0,1,2-4.72,8.5,8.5,0,0,1,10.81,0,6.36,6.36,0,0,1,2.06,4.77,5.22,5.22,0,0,1-.94,3.12,5.91,5.91,0,0,1-2.86,2.05,6.93,6.93,0,0,1,3.61,2.5,6.83,6.83,0,0,1,1.24,4.11,7.42,7.42,0,0,1-2.33,5.55,9.54,9.54,0,0,1-12.31,0,7.53,7.53,0,0,1-2.34-5.64,6.82,6.82,0,0,1,1.28-4.21A6.39,6.39,0,0,1,285.35,20.3Zm-1.65,6.54a5.69,5.69,0,0,0,.64,2.62,4.49,4.49,0,0,0,1.9,2,5.65,5.65,0,0,0,2.73.69,5.06,5.06,0,0,0,3.74-1.46,5,5,0,0,0,1.48-3.7,5.07,5.07,0,0,0-1.52-3.78,5.19,5.19,0,0,0-3.81-1.5,5,5,0,0,0-5.16,5.17Zm1-11.9a4,4,0,0,0,1.18,3A4.2,4.2,0,0,0,289,19.09a4.13,4.13,0,0,0,3-1.15,3.81,3.81,0,0,0,1.17-2.82,3.93,3.93,0,0,0-1.21-2.93,4.09,4.09,0,0,0-3-1.19,4.17,4.17,0,0,0-3,1.16A3.74,3.74,0,0,0,284.71,14.94Z" transform="translate(-8.84 -8.4)"/><path d="M305.37,20.3a6,6,0,0,1-2.92-2.06,5.38,5.38,0,0,1-.95-3.2,6.26,6.26,0,0,1,2-4.72,8.5,8.5,0,0,1,10.81,0,6.32,6.32,0,0,1,2.06,4.77,5.22,5.22,0,0,1-.94,3.12,5.91,5.91,0,0,1-2.86,2.05,6.58,6.58,0,0,1,4.86,6.61,7.39,7.39,0,0,1-2.34,5.55,9.54,9.54,0,0,1-12.31,0,7.53,7.53,0,0,1-2.34-5.64,6.82,6.82,0,0,1,1.28-4.21A6.39,6.39,0,0,1,305.37,20.3Zm-1.65,6.54a5.69,5.69,0,0,0,.64,2.62,4.52,4.52,0,0,0,1.91,2,5.58,5.58,0,0,0,2.72.69,5.06,5.06,0,0,0,3.74-1.46,5,5,0,0,0,1.48-3.7,5.07,5.07,0,0,0-1.52-3.78,5.19,5.19,0,0,0-3.81-1.5,5,5,0,0,0-5.16,5.17Zm1-11.9a4,4,0,0,0,1.17,3A4.2,4.2,0,0,0,309,19.09a4.13,4.13,0,0,0,3-1.15,3.81,3.81,0,0,0,1.17-2.82,3.93,3.93,0,0,0-1.21-2.93,4.09,4.09,0,0,0-3-1.19,4.17,4.17,0,0,0-3,1.16A3.73,3.73,0,0,0,304.74,14.94Z" transform="translate(-8.84 -8.4)"/><path d="M340.67,34.28V28.11H329.49v-2.9l11.76-16.7h2.58v16.7h3.48v2.9h-3.48v6.17Zm0-9.07V13.59L332.6,25.21Z" transform="translate(-8.84 -8.4)"/><path d="M360.69,34.28V28.11H349.51v-2.9l11.76-16.7h2.58v16.7h3.48v2.9h-3.48v6.17Zm0-9.07V13.59l-8.07,11.62Z" transform="translate(-8.84 -8.4)"/></svg>